# 3ds Max Wavefront OBJ Exporter v0.97b - (c)2007 guruware
# File Created: 14.02.2017 15:14:34

mtllib Angel Wings T3.mtl

#
# object Angel_Wings_T3
#

v  19.2257 -56.7061 -0.0000
v  49.3475 -42.4624 -0.0000
v  19.1792 15.4347 -0.0000
v  0.0000 0.0000 -0.0000
v  66.2940 -23.1226 -0.0000
v  39.8287 35.7847 -0.0000
v  88.5119 -7.2774 -0.0000
v  64.7257 50.5176 -0.0000
v  122.1001 4.0561 -0.0000
v  97.5297 51.5182 -0.0000
v  140.5496 14.3251 -0.0000
v  121.6685 53.4968 -0.0000
v  154.7734 25.3905 -0.0000
v  160.3932 66.7603 -0.0000
v  -19.2257 -56.7061 -0.0000
v  -0.0000 0.0000 -0.0000
v  -19.1792 15.4347 -0.0000
v  -49.3475 -42.4624 -0.0000
v  -39.8287 35.7847 -0.0000
v  -66.2940 -23.1226 -0.0000
v  -64.7257 50.5176 -0.0000
v  -88.5119 -7.2774 -0.0000
v  -97.5297 51.5182 -0.0000
v  -122.1001 4.0561 -0.0000
v  -121.6685 53.4968 -0.0000
v  -140.5496 14.3251 -0.0000
v  -160.3932 66.7603 -0.0000
v  -154.7734 25.3905 -0.0000
# 28 vertices

vn 0.0000 0.0000 1.0000
vn -0.0000 0.0000 1.0000
# 2 vertex normals

vt 0.1629 0.0882 0.0000
vt 0.3404 0.1890 0.0000
vt 0.1295 0.5289 0.0000
vt 0.0225 0.4261 0.0000
vt 0.4351 0.3149 0.0000
vt 0.2464 0.6627 0.0000
vt 0.5636 0.4219 0.0000
vt 0.3918 0.7642 0.0000
vt 0.7636 0.5066 0.0000
vt 0.5917 0.7853 0.0000
vt 0.8716 0.5777 0.0000
vt 0.7383 0.8084 0.0000
vt 0.9534 0.6519 0.0000
vt 0.9688 0.9072 0.0000
# 14 texture coords

g Angel_Wings_T3
usemtl Material__30
s 1
f 1/1/1 2/2/1 3/3/1 4/4/1 
s off
f 3/3/1 2/2/1 5/5/1 6/6/1 
f 6/6/1 5/5/1 7/7/1 8/8/1 
f 8/8/1 7/7/1 9/9/1 10/10/1 
f 10/10/1 9/9/1 11/11/1 12/12/1 
f 12/12/1 11/11/1 13/13/1 14/14/1 
s 1
f 15/1/2 16/4/2 17/3/2 18/2/1 
s off
f 17/3/1 19/6/1 20/5/1 18/2/1 
f 19/6/1 21/8/1 22/7/1 20/5/1 
f 21/8/1 23/10/1 24/9/1 22/7/1 
f 23/10/1 25/12/1 26/11/1 24/9/1 
f 25/12/1 27/14/1 28/13/1 26/11/1 
# 12 polygons

